<svg width="718" height="178" viewBox="0 0 718 178" fill="none" xmlns="http://www.w3.org/2000/svg">
<g clip-path="url(#clip0_10_2193)">
<path d="M456.532 29.5653C456.532 22.5246 452.668 22.1725 447.751 22.1725H425.622C420.704 22.1725 416.841 22.5246 416.841 29.5653C416.841 29.5653 425.973 35.9019 425.973 48.2231C425.973 48.2231 425.973 83.0746 425.973 98.2121C425.973 124.263 420.353 143.625 401.737 143.625C386.984 143.625 379.257 126.023 379.257 102.789V48.2231C379.257 36.2539 388.389 29.5653 388.389 29.5653C388.389 22.5246 384.526 22.5246 379.959 22.5246H336.404C331.136 22.5246 327.623 22.5246 327.623 29.5653C327.623 29.5653 336.404 36.2539 336.404 48.2231V103.141C336.404 103.141 330.433 168.267 401.034 168.267C440.726 168.267 447.048 127.079 447.048 104.901V48.2231C447.399 36.2539 456.532 29.5653 456.532 29.5653Z" fill="black"/>
<path d="M563.312 78.4981C555.233 88.0031 550.316 100.324 550.316 113.35C550.316 119.334 551.37 125.319 553.126 130.951C554.531 127.431 555.936 123.207 557.341 118.63C563.312 101.028 564.717 88.0031 563.312 78.4981ZM560.853 70.4013C556.287 60.5444 547.155 56.672 535.563 57.024C511.678 57.376 519.406 87.651 529.241 94.3397C546.803 105.957 541.886 147.497 533.807 141.512C528.187 137.288 516.596 114.054 506.761 65.1208C506.058 62.6566 504.653 60.1923 501.843 60.1923H457.235C450.912 60.1923 450.912 71.8095 450.912 71.8095C450.912 71.8095 457.937 70.4013 461.45 79.9063C484.281 140.104 486.74 166.859 513.786 166.859C522.918 166.859 536.617 165.803 549.613 139.4C545.75 131.303 543.642 122.502 543.642 112.998C543.291 96.8039 549.965 81.6664 560.853 70.4013Z" fill="black"/>
<path d="M716.808 140.456C714.701 140.104 703.11 146.441 703.11 139.048V14.0757C703.11 10.2034 699.948 7.38709 696.085 7.73912C683.791 8.79522 659.203 11.2595 655.34 13.7237C650.071 16.892 646.207 19.0042 646.207 24.2847C646.207 24.2847 659.555 22.5246 659.555 40.1263V73.2176C669.038 84.1307 675.01 98.212 675.01 113.702C675.01 127.431 670.443 140.104 662.716 150.313C665.877 158.762 672.2 166.859 685.196 166.859C712.593 166.507 718.916 140.808 716.808 140.456ZM659.203 84.8347V129.191C659.203 129.191 658.852 134.472 659.906 141.16C664.823 133.063 667.633 123.559 667.633 113.702C667.633 102.788 664.472 92.9315 659.203 84.8347Z" fill="black"/>
<path d="M659.203 84.8348C649.017 68.6412 630.4 57.7281 608.974 57.7281C590.358 57.7281 573.849 65.8249 563.312 78.4981C555.233 88.0031 550.315 100.324 550.315 113.35C550.315 119.334 551.369 125.319 553.125 130.951C560.853 153.129 582.982 169.323 608.974 169.323C630.752 169.323 649.719 158.058 659.905 141.16C664.823 133.064 667.633 123.559 667.633 113.702C667.633 102.789 664.472 92.9316 659.203 84.8348ZM608.974 140.456C593.87 140.456 581.928 128.487 581.928 113.35C581.928 98.2121 593.87 86.2429 608.974 86.2429C624.078 86.2429 636.02 98.2121 636.02 113.35C636.02 128.135 624.078 140.456 608.974 140.456Z" fill="black"/>
</g>
<g clip-path="url(#clip1_10_2193)">
<mask id="mask0_10_2193" style="mask-type:luminance" maskUnits="userSpaceOnUse" x="0" y="0" width="324" height="178">
<path d="M323.754 0H0V178H323.754V0Z" fill="white"/>
</mask>
<g mask="url(#mask0_10_2193)">
<path d="M64.6444 72.4602C72.0626 72.4602 78.951 70.3599 85.3095 66.1593C91.1381 61.9587 95.907 56.708 99.0863 49.882C102.266 43.0561 102.795 35.705 101.206 28.8791C99.6161 22.0531 95.907 15.7522 90.6083 10.5015C85.3095 5.25075 78.951 2.10031 72.0626 0.525086C65.1743 -1.05014 57.756 1.18017e-05 50.8676 2.62538C43.9793 5.25075 38.1506 9.97641 34.4415 16.2773C30.2025 22.0531 28.083 28.8791 28.083 36.2301C28.083 45.6814 31.7921 55.1328 38.6805 61.9587C45.5689 68.7847 55.1066 72.4602 64.6444 72.4602ZM64.6444 18.9027C68.3535 18.9027 71.5328 19.9528 74.712 22.0531C77.8913 24.1534 80.0108 26.7788 81.0705 29.9292C82.1303 33.0797 82.6601 36.7552 82.1303 39.9056C81.6004 43.0561 79.4809 46.2065 77.3614 48.8319C74.712 51.4572 71.5328 53.0325 68.3535 53.5575C65.1743 54.0826 61.4651 54.0826 58.2859 52.5074C55.1066 50.9322 52.4573 48.8319 50.3378 46.2065C48.2183 43.0561 47.1585 39.9056 47.1585 36.2301C47.1585 34.1298 47.6884 31.5044 48.2183 29.4041C49.278 27.3038 50.3378 25.2036 51.9274 23.6283C53.517 22.0531 55.6365 20.4779 57.756 19.9528C59.8755 19.4277 62.5249 18.9027 64.6444 18.9027Z" fill="#219653"/>
<path d="M161.612 72.4602C169.03 72.4602 175.919 70.3599 181.747 66.1593C187.576 61.9587 192.345 56.708 195.524 49.882C198.174 43.0561 199.233 35.705 197.644 28.8791C196.584 22.0531 192.875 15.7522 187.576 10.5015C182.277 5.25075 175.919 2.10031 169.03 0.525086C162.142 -1.05014 154.724 1.18017e-05 147.835 2.62538C140.947 5.25075 135.648 9.97641 131.409 15.7522C127.17 21.528 125.051 28.8791 125.051 35.705C125.051 45.1564 128.76 54.6077 135.648 61.4336C142.537 68.7847 152.074 72.4602 161.612 72.4602ZM161.612 18.9027C165.321 18.9027 168.501 19.9528 171.68 22.0531C174.329 24.1534 176.979 26.7788 178.038 29.9292C179.628 33.0797 179.628 36.7552 179.098 39.9056C178.568 43.0561 176.449 46.2065 174.329 48.8319C171.68 51.4572 168.501 53.0325 165.321 53.5575C162.142 54.0826 158.433 54.0826 155.254 52.5074C152.074 50.9322 149.425 48.8319 147.306 46.2065C145.186 43.5811 144.126 39.9056 144.126 36.2301C144.126 34.1298 144.656 31.5044 145.716 29.4041C146.776 27.3038 147.835 25.2036 149.425 23.6283C151.015 22.0531 153.134 20.4779 155.254 19.9528C157.373 19.4277 159.493 18.9027 161.612 18.9027Z" fill="#219653"/>
<path d="M259.109 72.4602C266.527 72.4602 273.415 70.3599 279.774 66.1593C285.603 61.9587 290.371 56.708 293.551 49.882C296.2 43.0561 297.26 35.705 295.67 28.8791C293.551 22.0531 289.842 15.7522 285.073 10.5015C279.774 5.25075 273.415 2.10031 266.527 0.525086C259.639 -1.05014 252.22 1.18017e-05 245.332 2.62538C238.444 5.25075 232.615 9.97641 228.376 16.2773C224.137 22.0531 222.018 29.4041 222.018 36.2301C222.018 45.6814 225.727 55.1328 232.615 61.9587C240.033 68.7847 249.041 72.4602 259.109 72.4602ZM259.109 18.9027C262.818 18.9027 265.997 19.9528 269.176 22.0531C271.826 24.1534 274.475 26.7788 275.535 29.9292C276.595 33.0797 277.125 36.7552 276.595 39.9056C276.065 43.0561 274.475 46.2065 271.826 48.8319C269.176 51.4572 265.997 53.0325 262.818 53.5575C259.639 54.0826 255.93 54.0826 252.75 52.5074C249.571 50.9322 246.922 48.8319 244.802 46.2065C242.683 43.5811 241.623 39.9056 241.623 36.2301C241.623 31.5044 243.742 27.3038 246.922 23.6283C250.101 19.9528 254.34 18.9027 259.109 18.9027Z" fill="#219653"/>
<path d="M268.117 84.0118C248.511 81.9115 228.906 85.062 211.42 93.4631C193.934 81.3864 172.739 76.1357 151.544 78.7611C137.768 80.3363 123.991 85.062 112.334 92.9381C94.8476 85.062 75.2423 81.9115 56.1668 84.0118C36.0315 86.1121 16.4261 93.4631 0 105.54L14.8365 118.667C20.1353 112.891 27.0236 108.165 33.912 105.015C46.0991 99.239 59.8759 97.1387 73.1228 98.7139C77.8916 98.7139 96.4373 100.289 97.497 106.065C97.497 108.69 93.7879 110.791 89.5489 115.516C85.3099 120.242 82.1306 125.493 80.0111 131.268C77.8916 137.044 77.3618 143.345 77.8916 149.121C80.0111 158.572 85.8398 166.448 93.7879 171.699C101.736 176.95 111.804 178.525 121.341 176.95C130.349 174.85 137.768 169.599 143.066 162.248C147.835 153.847 149.425 143.87 147.305 134.419C144.656 123.392 138.827 113.416 130.349 106.065C130.349 106.065 129.819 106.065 129.819 105.54C138.827 101.339 149.425 98.7139 159.492 98.7139H161.612C172.209 98.7139 182.807 101.864 192.345 106.59C183.867 113.941 178.568 123.917 175.919 134.419C173.799 143.87 175.389 153.847 180.158 162.248C185.456 169.599 192.875 175.375 201.882 177.475C206.651 178.525 211.42 178.525 216.189 177.475C220.958 176.425 225.727 174.85 229.436 172.224C233.675 169.599 236.854 166.448 239.504 162.248C242.153 158.047 244.272 153.847 245.332 149.121C245.862 142.82 245.332 137.044 243.213 131.268C241.093 125.493 237.914 120.242 234.205 115.516C229.436 110.791 225.197 108.69 226.257 106.065C227.316 100.289 245.332 99.239 250.631 98.7139C263.878 97.1387 277.655 99.239 289.842 105.015C297.26 108.69 303.618 112.891 308.917 118.667L323.224 105.54C307.328 93.9882 288.252 86.6372 268.117 84.0118ZM126.64 140.72C123.461 147.546 118.692 147.546 113.923 156.472C113.923 157.522 113.393 158.047 112.334 158.572C108.624 159.622 98.0269 145.445 98.0269 131.794C98.0269 129.693 98.0269 127.593 99.0866 126.018C100.676 123.392 102.796 121.292 105.445 119.717C108.095 118.142 111.274 117.617 114.453 118.142C117.632 118.142 120.282 119.192 122.401 121.292C124.521 122.867 126.64 125.493 127.7 128.118C128.23 130.218 128.76 132.319 128.23 134.944C128.23 136.519 127.7 138.619 126.64 140.72ZM223.607 143.87C220.428 150.696 215.659 150.696 210.89 159.622C210.36 160.673 210.36 161.198 209.301 161.723C205.592 162.773 194.994 148.596 194.994 134.944C194.994 132.844 195.524 130.743 196.054 129.168C197.643 126.543 199.763 124.442 202.412 122.867C205.062 121.292 208.241 120.767 211.42 121.292C214.599 121.292 217.249 122.342 219.368 124.443C221.488 126.018 223.607 128.643 224.667 131.268C226.257 134.944 225.727 139.67 223.607 143.87Z" fill="#219653"/>
</g>
</g>
<defs>
<clipPath id="clip0_10_2193">
<rect width="389.536" height="161.232" fill="white" transform="translate(327.623 7.73914)"/>
</clipPath>
<clipPath id="clip1_10_2193">
<rect width="323.754" height="178" fill="white"/>
</clipPath>
</defs>
</svg>
