<svg width="54" height="30" viewBox="0 0 54 30" fill="none" xmlns="http://www.w3.org/2000/svg">
<g clip-path="url(#clip0_77_3180)">
<path d="M10.8078 12.2317C12.0199 12.2344 13.2056 11.8779 14.2148 11.2075C15.224 10.5371 16.0113 9.58292 16.477 8.46563C16.9427 7.34834 17.066 6.11823 16.8311 4.93098C16.5963 3.74374 16.0139 2.65274 15.1577 1.79607C14.3015 0.939406 13.21 0.355582 12.0213 0.118507C10.8326 -0.118568 9.60024 0.00175446 8.48008 0.46425C7.35993 0.926746 6.40239 1.71063 5.72866 2.71667C5.05494 3.7227 4.69532 4.90567 4.69531 6.11584C4.69531 7.73554 5.33886 9.28909 6.48478 10.4356C7.6307 11.5822 9.18539 12.2281 10.8078 12.2317ZM10.8078 3.16568C11.3916 3.16834 11.9616 3.34363 12.4458 3.66941C12.93 3.99519 13.3066 4.45687 13.5282 4.99617C13.7498 5.53547 13.8064 6.12822 13.6909 6.6996C13.5753 7.27098 13.2928 7.79539 12.879 8.20663C12.4652 8.61787 11.9387 8.89751 11.3658 9.01026C10.793 9.123 10.1995 9.0638 9.66033 8.84012C9.12116 8.61644 8.66044 8.23831 8.33633 7.75345C8.01222 7.2686 7.83924 6.69875 7.83924 6.11584C7.83923 5.72729 7.91611 5.34256 8.06546 4.98375C8.21481 4.62494 8.43368 4.29912 8.70951 4.02499C8.98534 3.75087 9.31269 3.53384 9.67277 3.38637C10.0329 3.23891 10.4186 3.16391 10.8078 3.16568Z" fill="#42C83C"/>
<path d="M27.0009 12.2317C28.2125 12.2317 29.3969 11.873 30.4043 11.201C31.4117 10.529 32.1969 9.57381 32.6606 8.45629C33.1242 7.33876 33.2455 6.10907 33.0092 4.92271C32.7728 3.73635 32.1894 2.64661 31.3326 1.79129C30.4759 0.935976 29.3844 0.353498 28.1961 0.117516C27.0077 -0.118465 25.776 0.00265198 24.6566 0.465546C23.5373 0.928441 22.5805 1.71232 21.9074 2.71806C21.2343 3.72381 20.875 4.90625 20.875 6.11585C20.875 7.73788 21.5204 9.29347 22.6692 10.4404C23.8181 11.5874 25.3762 12.2317 27.0009 12.2317ZM27.0009 3.16569C27.5848 3.16836 28.1548 3.34364 28.639 3.66942C29.1231 3.9952 29.4998 4.45688 29.7214 4.99618C29.943 5.53548 29.9996 6.12823 29.884 6.69961C29.7685 7.271 29.486 7.7954 29.0722 8.20664C28.6584 8.61788 28.1318 8.89752 27.559 9.01027C26.9861 9.12301 26.3927 9.06382 25.8535 8.84013C25.3143 8.61645 24.8536 8.23832 24.5295 7.75346C24.2054 7.26861 24.0324 6.69877 24.0324 6.11585C24.0324 5.7273 24.1093 5.34257 24.2586 4.98376C24.408 4.62495 24.6269 4.29913 24.9027 4.025C25.1785 3.75088 25.5059 3.53385 25.866 3.38638C26.226 3.23892 26.6117 3.16392 27.0009 3.16569Z" fill="#42C83C"/>
<path d="M43.1925 12.2317C44.4047 12.2344 45.5904 11.8779 46.5996 11.2075C47.6088 10.5371 48.396 9.58292 48.8618 8.46563C49.3275 7.34834 49.4507 6.11823 49.2159 4.93098C48.981 3.74374 48.3987 2.65274 47.5425 1.79607C46.6863 0.939406 45.5948 0.355582 44.4061 0.118507C43.2174 -0.118568 41.985 0.00175446 40.8648 0.46425C39.7447 0.926746 38.7871 1.71063 38.1134 2.71667C37.4397 3.7227 37.0801 4.90567 37.0801 6.11584C37.0801 7.73554 37.7236 9.28909 38.8695 10.4356C40.0155 11.5822 41.5702 12.2281 43.1925 12.2317ZM43.1925 3.16568C43.777 3.16568 44.3483 3.3387 44.8342 3.66287C45.3202 3.98704 45.6989 4.44779 45.9226 4.98686C46.1463 5.52593 46.2048 6.11911 46.0908 6.69139C45.9767 7.26366 45.6953 7.78933 45.282 8.20192C44.8688 8.6145 44.3422 8.89548 43.769 9.00931C43.1958 9.12315 42.6016 9.06472 42.0617 8.84143C41.5217 8.61814 41.0602 8.24001 40.7355 7.75486C40.4108 7.26971 40.2375 6.69933 40.2375 6.11584C40.2375 5.33341 40.5488 4.58302 41.103 4.02976C41.6572 3.4765 42.4088 3.16568 43.1925 3.16568Z" fill="#42C83C"/>
<path d="M44.6898 14.1716C41.455 13.7764 38.1748 14.3238 35.2446 15.7477C32.3376 13.7412 28.7946 12.8689 25.2865 13.2959C22.9579 13.5823 20.7248 14.393 18.7558 15.6668C15.8423 14.2982 12.602 13.7754 9.40497 14.1581C6.00779 14.5214 2.76756 15.7764 0.0136719 17.7953L2.52342 20.018C3.44341 19.0625 4.52623 18.278 5.72132 17.701C7.76151 16.7633 10.0222 16.4089 12.2521 16.6772C13.0616 16.6772 16.1111 16.9466 16.3 17.9165C16.3 18.3745 15.6793 18.6709 14.9507 19.5061C14.2498 20.2633 13.7178 21.1603 13.3898 22.1379C13.0619 23.1155 12.9454 24.1515 13.0482 25.1774C13.3975 26.7414 14.3489 28.1054 15.6971 28.975C17.0452 29.8446 18.6819 30.1498 20.2536 29.8249C21.7359 29.4747 23.029 28.5739 23.8697 27.3058C24.6997 25.902 24.9603 24.2344 24.5984 22.6448C24.1956 20.789 23.2185 19.1066 21.8053 17.8357C21.8053 17.8357 21.7378 17.8357 21.7243 17.7549C23.2704 17.0088 24.9595 16.6045 26.6763 16.5694H27.0002C28.7793 16.6061 30.5237 17.068 32.0871 17.9165C30.7098 19.1629 29.7648 20.8139 29.3885 22.6314C29.0265 24.2209 29.2872 25.8885 30.1171 27.2923C30.9586 28.5683 32.2573 29.4745 33.7468 29.8249C34.5346 29.9969 35.3487 30.0115 36.1423 29.868C36.9358 29.7244 37.693 29.4255 38.3703 28.9885C39.0476 28.5515 39.6316 27.985 40.0886 27.3217C40.5456 26.6583 40.8666 25.9113 41.0332 25.1235C41.1318 24.1051 41.0146 23.0774 40.6892 22.1073C40.3637 21.1371 39.8372 20.2462 39.1441 19.4926C38.3615 18.6574 37.6733 18.3611 37.7948 17.903C37.9567 16.9331 41.0062 16.7176 41.8428 16.6637C44.0726 16.3955 46.3333 16.7499 48.3735 17.6875C49.5744 18.2672 50.662 19.0564 51.5849 20.018L53.9867 17.7953C51.2584 15.7965 48.0529 14.5471 44.6898 14.1716ZM21.1171 23.6821C20.5774 24.8676 19.7678 24.8676 19.0392 26.3763C19.0392 26.538 18.9177 26.6457 18.7963 26.6861C18.1486 26.9017 16.435 24.4769 16.4215 22.1734C16.3959 21.8404 16.4563 21.5065 16.5969 21.2034C16.8385 20.7563 17.2066 20.3901 17.6553 20.1506C18.104 19.911 18.6135 19.8087 19.1201 19.8563C19.6101 19.8993 20.079 20.075 20.4761 20.3647C20.8733 20.6544 21.1836 21.0469 21.3735 21.4998C21.4795 21.8621 21.5114 22.2421 21.4674 22.617C21.4233 22.9919 21.3042 23.3541 21.1171 23.6821ZM37.309 24.2075C36.7558 25.3929 35.9597 25.3929 35.2311 26.9017C35.1501 27.0633 35.1096 27.1711 34.9882 27.2115C34.327 27.4271 32.6269 25.0023 32.5999 22.6987C32.5853 22.3651 32.65 22.0327 32.7888 21.7288C33.0304 21.2817 33.3985 20.9155 33.8472 20.6759C34.2959 20.4364 34.8054 20.334 35.312 20.3817C35.802 20.4246 36.2709 20.6004 36.668 20.8901C37.0652 21.1797 37.3755 21.5722 37.5654 22.0252C37.7728 22.755 37.6907 23.5365 37.336 24.2075H37.309Z" fill="#42C83C"/>
</g>
<defs>
<clipPath id="clip0_77_3180">
<rect width="54" height="30" fill="white"/>
</clipPath>
</defs>
</svg>
